<?xml version="1.0" encoding="UTF-8"?>
<svg id="Layer_1" data-name="Layer 1" xmlns="http://www.w3.org/2000/svg" xmlns:xlink="http://www.w3.org/1999/xlink" viewBox="0 0 35 35">
  <defs>
    <style>
      .cls-1 {
        fill: #e9ae8f;
      }

      .cls-1, .cls-2, .cls-3, .cls-4, .cls-5, .cls-6, .cls-7, .cls-8, .cls-9, .cls-10, .cls-11 {
        stroke-width: 0px;
      }

      .cls-12, .cls-8 {
        fill: #fff1d4;
      }

      .cls-2 {
        fill: #e59090;
      }

      .cls-3 {
        fill: #cc7f57;
      }

      .cls-4 {
        fill: #663837;
      }

      .cls-5 {
        fill: #2d2d2d;
      }

      .cls-6 {
        fill: #5b3d31;
      }

      .cls-7 {
        fill: #fff;
      }

      .cls-13 {
        clip-path: url(#clippath);
      }

      .cls-9 {
        fill: #efc336;
      }

      .cls-10 {
        fill: #de5959;
      }

      .cls-11 {
        fill: #a75a5a;
      }
    </style>
    <clipPath id="clippath">
      <circle class="cls-8" cx="17.81" cy="17.26" r="16.36"/>
    </clipPath>
  </defs>
  <circle class="cls-12" cx="17.81" cy="17.26" r="16.36"/>
  <g class="cls-13">
    <g>
      <g>
        <g>
          <path class="cls-1" d="m28.94,33.36H5.82c2.02-3.64,5.13-6.28,8.76-7.19v-4.16h5.6v4.16c3.62.91,6.74,3.54,8.76,7.19Z"/>
          <path class="cls-3" d="m20.18,22.68v2.88c-3.94.7-5-1.75-5-1.75l5-1.13Z"/>
        </g>
        <g>
          <path class="cls-9" d="m28.94,33.62H5.82c1.5-2.81,3.61-5.04,6.08-6.39.31-.17.62-.32.93-.46.47.31.96.58,1.46.8,2.66,1.16,5.57.9,8.07-.59.3.15.6.31.89.49,2.3,1.36,4.26,3.5,5.67,6.16Z"/>
          <path class="cls-10" d="m23.26,27.43s-.03.03-.05.04c-3.53,2.88-7.92,2.69-11.32-.26.31-.16.62-.31.93-.45.47.3.96.56,1.46.77,2.66,1.11,5.57.87,8.07-.57.3.14.6.3.89.47Z"/>
        </g>
      </g>
      <g>
        <path class="cls-6" d="m25.78,7.89c-.3-1.7-1.18-3.18-2.32-4.19-2.62-2.32-6.15-2.05-9.14-1.19-1.2.34-2.67,1.05-3.37,2.41-.04-.05-.07-.11-.11-.16-.19-.22-.43-.39-.68-.5-.26-.12-.61-.08-.72.29-.1.35.16.62.37.79.11.09.22.17.33.26-.08,0-.16,0-.24.01-.27.03-.58.1-.81.29-.21.17-.36.49-.19.78.14.23.4.27.61.25.04,0,.07-.01.11-.02-.15.26-.25.59-.32.91-.17.82-.22,1.7-.18,2.54.04.87.16,1.74.38,2.57.11.43.25.84.4,1.25.14.38.29.84.57,1.09.13.12.29-.08.26-.25-.05-.28-.19-.55-.32-.81.08.02.16.04.24.04.25.01.51-.06.75-.11.27-.06.55-.11.83-.16.56-.1,1.13-.17,1.69-.22,2.26-.21,4.54-.07,6.77.43,1.25.28,2.48.67,3.68,1.15.11.05.29-.03.34-.17.35-.98.56-2.02.64-3.09.03-.53.04-1.09,0-1.63.1-.04.19-.11.26-.2.46-.59.31-1.66.18-2.37Z"/>
        <g>
          <path class="cls-1" d="m10.79,18.41c-.6.74-1.67.62-2.4-.27s-.82-2.22-.22-2.96c.6-.74,1.67-.62,2.4.27.72.89.82,2.22.22,2.96Z"/>
          <g>
            <path class="cls-3" d="m10.66,17.33c-.04-.28-.08-.54-.19-.79-.11-.24-.26-.43-.44-.59-.19-.17-.41-.25-.64-.28-.25-.04-.5.04-.73.16-.07.04-.14.16-.16.25-.02.1-.01.23.03.32.11.21.29.24.46.15-.07.04-.01,0,0,0,.02,0,.04-.02.06-.02.02,0,.04-.01.06-.02.01,0,.02,0,.02,0,.03,0,.07,0,.11,0,.02,0,.04,0,.06,0,.01,0,.02,0,.02,0,.03,0,.07.02.1.03.02,0,.04.01.06.02,0,0,.02,0,.02.01.02.01.02,0-.02-.01.03,0,.08.05.1.06.03.02.05.05.08.07.01.02.03.03.04.05.03.03.05.06.07.1,0,0,0-.01,0-.02,0,0,0,.01,0,.02,0,0,0,0,0,0,.02.03,0,.02,0,0,0,.02.02.03.03.05.02.03.04.07.05.11,0,0,0,.01.01.03,0,0,0,.02,0,.03.02.05.03.11.04.16.02.12.04.23.05.35.03.22.26.36.42.29.19-.08.27-.28.24-.52Z"/>
            <polygon class="cls-3" points="9.81 16.83 9.81 16.83 9.81 16.83 9.81 16.83"/>
          </g>
        </g>
        <g>
          <path class="cls-1" d="m23.84,18.41c.6.74,1.67.62,2.4-.27.72-.89.82-2.22.22-2.96-.6-.74-1.67-.62-2.4.27-.72.89-.82,2.22-.22,2.96Z"/>
          <g>
            <path class="cls-3" d="m24.21,17.85c.16.06.39-.08.42-.29.02-.12.03-.23.05-.35.01-.05.02-.11.04-.16,0,0,0-.02,0-.03,0-.01.01-.03.01-.03.02-.04.03-.07.05-.11,0-.02.02-.03.03-.05-.01.02-.02.03,0,0,0,0,0,0,0,0,0,0,0-.01,0-.02,0,0,0,.01,0,.02.02-.03.05-.07.07-.1.01-.02.03-.03.04-.05.03-.02.06-.05.08-.07.02-.02.07-.06.1-.06-.04.02-.05.03-.02.01,0,0,.02,0,.02-.01.02,0,.04-.02.06-.02.03-.01.07-.02.1-.03,0,0,.01,0,.02,0,.02,0,.04,0,.06,0,.03,0,.07,0,.11,0,0,0,.01,0,.02,0,.02,0,.04.01.06.02s.04.01.06.02c.02,0,.08.04,0,0,.18.09.35.06.46-.15.05-.09.06-.22.03-.32-.02-.09-.08-.21-.16-.25-.23-.12-.47-.19-.73-.16-.23.03-.45.11-.64.28-.18.16-.33.35-.44.59-.11.25-.16.51-.19.79-.03.23.05.44.24.52Z"/>
            <path class="cls-3" d="m24.82,16.83h0s0,0,0,0Z"/>
          </g>
        </g>
        <g>
          <path class="cls-1" d="m24.37,13.39c0,6.92-3.13,11.06-6.99,11.06s-6.99-4.13-6.99-11.06,3.13-9.15,6.99-9.15,6.99,2.23,6.99,9.15Z"/>
          <g>
            <path class="cls-6" d="m12.72,13.26c.34-.27.72-.48,1.13-.56.41-.09.85-.03,1.25.12h0c.12.04.19.2.15.35-.04.15-.16.23-.28.19,0,0-.02,0-.03-.01-.33-.18-.69-.28-1.06-.26-.37.02-.74.15-1.08.36-.04.02-.09,0-.11-.05-.02-.05,0-.1.03-.13Z"/>
            <path class="cls-6" d="m22.03,13.26c-.34-.27-.72-.48-1.13-.56-.41-.09-.85-.03-1.25.12h0c-.12.04-.19.2-.15.35s.16.23.28.19c0,0,.02,0,.03-.01.33-.18.69-.28,1.06-.26.37.02.74.15,1.08.36.04.02.09,0,.11-.05.02-.05,0-.1-.03-.13Z"/>
            <g>
              <path class="cls-5" d="m15.18,15.3c0,.41-.27.75-.61.75s-.61-.33-.61-.75.27-.75.61-.75c.33,0,.61.33.61.75Z"/>
              <path class="cls-7" d="m14.55,15.1c0,.12-.08.21-.17.21s-.17-.1-.17-.21.08-.21.17-.21.17.1.17.21Z"/>
            </g>
            <g>
              <path class="cls-5" d="m20.78,15.3c0,.41-.27.75-.61.75s-.61-.33-.61-.75.27-.75.61-.75c.33,0,.61.33.61.75Z"/>
              <path class="cls-7" d="m20.15,15.1c0,.12-.08.21-.17.21s-.17-.1-.17-.21.08-.21.17-.21.17.1.17.21Z"/>
            </g>
            <g>
              <path class="cls-4" d="m19.04,19.34c-.22-.65-1.07.03-1.73.03s-1.51-.67-1.73-.03c-.27.82.66,1.55,1.73,1.55,1.06,0,2-.73,1.73-1.55Z"/>
              <path class="cls-11" d="m15.76,20.22c.31.4.91.67,1.56.67s1.25-.27,1.56-.67c-.37-.3-.93-.49-1.56-.49-.63,0-1.19.19-1.56.49Z"/>
              <path class="cls-7" d="m15.84,19.07c.4.48.94.77,1.49.76.54-.01,1.06-.29,1.44-.76-.36-.09-.97.29-1.47.29s-1.11-.39-1.47-.29Z"/>
            </g>
            <path class="cls-3" d="m17.32,16.96s-.04-.1-.07-.12c-.05-.03-.1-.05-.16-.04-.06,0-.11.02-.16.05-.09.06-.16.17-.19.29-.03.11-.02.24,0,.35.03.12.09.22.15.32.02.04.08.06.12.06.04,0,.09-.02.12-.06.03-.04.05-.09.05-.14,0-.05-.02-.1-.05-.14h0s-.05-.08-.07-.13c0-.02-.01-.05-.02-.07,0-.02,0-.04,0-.06,0-.01,0-.02,0-.03,0,0,0-.02.01-.02,0,0,0,0,0,0,0,0,.01,0,.02-.01,0,0,0,0,0,0h0s0,0,.01,0c0,0,0,0,0,0,0,0,0,0,0,0,.03.01.06.02.1,0,.04-.01.08-.05.1-.09.02-.05.03-.1.02-.16Z"/>
            <g>
              <path class="cls-2" d="m21.32,18.03c0,.52-.34.94-.76.94s-.76-.42-.76-.94.34-.94.76-.94.76.42.76.94Z"/>
              <path class="cls-2" d="m14.96,18.03c0,.52-.34.94-.76.94s-.76-.42-.76-.94.34-.94.76-.94c.42,0,.76.42.76.94Z"/>
            </g>
          </g>
        </g>
        <path class="cls-6" d="m24.61,10.37c-.26-1.74-.92-3.38-1.89-4.43-1.08-1.17-2.46-1.54-3.79-1.8-1.75-.35-3.6-.54-5.26.3l.13-.36c-1.47.62-2.74,2.22-3.4,4.27-.66,2.05-.61,5.22-.01,7.32,1.35-1.56,2.11-4.74,2.16-7.29,1.27,1.43,2.47,2.35,4.56,2.96,1.77.51,4.28.39,5.85.28.51,1.9.58,2.83,1.43,4.05.36-1.71.47-3.55.21-5.29Z"/>
      </g>
    </g>
  </g>
</svg>